<?xml version="1.0" encoding="utf-8"?>
<!-- Generator: Adobe Illustrator 16.0.0, SVG Export Plug-In . SVG Version: 6.00 Build 0)  -->
<!DOCTYPE svg PUBLIC "-//W3C//DTD SVG 1.1//EN" "http://www.w3.org/Graphics/SVG/1.1/DTD/svg11.dtd">
<svg version="1.1" id="Layer_1" xmlns="http://www.w3.org/2000/svg" xmlns:xlink="http://www.w3.org/1999/xlink" x="0px" y="0px"
	 width="160px" height="100px" viewBox="0 0 160 100" enable-background="new 0 0 160 100" xml:space="preserve">
<g>
	
		<path fill="none" stroke="#FFFFFF" stroke-width="0.6362" stroke-linecap="round" stroke-linejoin="round" stroke-miterlimit="10" d="
		M119.766,71.411c2.768-0.789,5.378-1.659,7.827-2.608c2.373-0.949,4.508-1.977,6.405-3.162"/>
	
		<path fill="none" stroke="#FFFFFF" stroke-width="0.6362" stroke-linecap="round" stroke-linejoin="round" stroke-miterlimit="10" d="
		M46.789,65.165c1.898,1.186,4.033,2.215,6.404,3.242c2.373,1.028,4.982,1.897,7.749,2.688"/>
</g>
<g>
	<path fill="#FFFFFF" d="M44.26,42.395v0.396l-1.502,0.395v16.367h5.455c0-0.633,0.079-1.267,0.237-1.741
		c0.158-0.473,0.396-0.869,0.554-1.264c0.237-0.396,0.553-0.712,0.87-0.949h0.791v4.586H36.985v-0.396l1.502-0.396V43.186
		l-1.502-0.395v-0.396H44.26z"/>
	<path fill="#FFFFFF" d="M55.408,59.868v0.396h-4.744v-0.396l2.056-0.791l7.037-16.919h0.791l7.274,17.314l1.265,0.396v0.396h-3.083
		c-0.95,0-1.661-0.237-2.214-0.633c-0.553-0.396-0.948-0.948-1.186-1.502l-1.264-3.084h-6.089l-1.66,4.032L55.408,59.868z
		 M55.486,54.334h5.535l-2.768-6.642L55.486,54.334z"/>
	<path fill="#FFFFFF" d="M92.331,42.395v0.396l-1.502,0.395v16.287l1.502,0.396v0.396h-7.274v-0.396l1.502-0.396V45.557
		l-6.008,14.865H79.76l-7.749-14.865v13.52l2.056,0.791v0.396h-4.823v-0.396l2.055-0.791V43.186l-1.502-0.395v-0.396h3.163
		c0.475,0,0.87,0.079,1.265,0.158c0.396,0.08,0.632,0.238,0.949,0.475c0.237,0.158,0.474,0.395,0.711,0.711
		c0.158,0.237,0.396,0.554,0.553,0.871l5.534,10.595l4.27-10.595c0.159-0.396,0.316-0.633,0.476-0.95
		c0.158-0.237,0.395-0.474,0.632-0.711c0.237-0.158,0.553-0.316,0.948-0.396c0.396-0.079,0.871-0.158,1.346-0.158H92.331z"/>
	<path fill="#FFFFFF" d="M103.637,50.934c1.187,0.08,2.293,0.238,3.242,0.555c0.395,0.157,0.79,0.314,1.186,0.552
		c0.396,0.238,0.712,0.475,1.028,0.791c0.315,0.317,0.553,0.713,0.711,1.108c0.159,0.395,0.316,0.868,0.316,1.423
		c0,0.711-0.157,1.345-0.395,1.896c-0.238,0.633-0.713,1.107-1.344,1.503c-0.633,0.396-1.424,0.791-2.452,1.027
		c-1.027,0.237-2.215,0.396-3.716,0.396h-7.353v-0.396l1.501-0.396V43.186l-1.501-0.395v-0.396h6.879
		c1.344,0,2.53,0.158,3.479,0.396c0.948,0.237,1.739,0.553,2.292,0.948c0.554,0.396,1.028,0.871,1.266,1.423
		c0.236,0.554,0.396,1.108,0.396,1.74c0,0.475-0.079,0.949-0.237,1.344c-0.158,0.396-0.396,0.712-0.633,1.028
		c-0.237,0.316-0.553,0.475-0.869,0.712c-0.316,0.158-0.712,0.316-1.027,0.475C105.614,50.776,104.665,50.934,103.637,50.934
		L103.637,50.934z M100.554,50.538h1.106c0.396,0,0.791-0.078,1.187-0.236c0.396-0.159,0.712-0.396,1.027-0.791
		c0.317-0.316,0.554-0.712,0.713-1.186c0.157-0.474,0.236-0.949,0.236-1.502c0-0.553-0.079-1.106-0.236-1.581
		c-0.159-0.475-0.396-0.87-0.713-1.186c-0.315-0.316-0.632-0.553-1.027-0.791c-0.396-0.158-0.791-0.316-1.187-0.316h-1.106V50.538z
		 M100.554,51.172v8.381h1.66c1.028,0,1.897-0.396,2.53-1.108c0.712-0.711,1.027-1.737,1.027-3.082s-0.315-2.373-1.027-3.084
		s-1.502-1.106-2.53-1.106H100.554z"/>
	<path fill="#FFFFFF" d="M118.66,42.395c3.083,0,5.375,0.791,6.957,2.372c1.581,1.582,2.45,3.716,2.45,6.562
		c0,2.847-0.79,4.981-2.45,6.562c-1.582,1.581-3.952,2.372-6.957,2.372h-6.484v-0.396l1.503-0.396V43.186l-1.503-0.395v-0.396
		H118.66z M117.869,43.028v16.525h0.791c0.711,0,1.423-0.159,1.976-0.396c0.633-0.316,1.107-0.713,1.582-1.424
		c0.395-0.632,0.791-1.503,1.027-2.529c0.237-1.028,0.396-2.373,0.396-3.954s-0.158-2.847-0.396-3.953
		c-0.236-1.027-0.554-1.897-1.027-2.53c-0.475-0.632-0.949-1.107-1.582-1.423c-0.632-0.315-1.265-0.395-1.976-0.395L117.869,43.028
		L117.869,43.028z"/>
	<path fill="#FFFFFF" d="M132.496,59.868v0.396h-4.744v-0.396l2.056-0.791l6.958-16.919h0.791l7.273,17.314l1.266,0.396v0.396
		h-3.085c-0.948,0-1.66-0.237-2.213-0.633c-0.554-0.396-0.949-0.948-1.186-1.502l-1.266-3.084h-6.087l-1.661,4.032L132.496,59.868z
		 M132.574,54.334h5.535l-2.768-6.721L132.574,54.334z"/>
</g>
<rect x="1.909" y="22.657" fill-rule="evenodd" clip-rule="evenodd" fill="#FFFFFF" width="155.621" height="53.343"/>
<rect x="4.164" y="24.835" fill-rule="evenodd" clip-rule="evenodd" fill="#58595B" width="151.112" height="48.988"/>
<polygon fill-rule="evenodd" clip-rule="evenodd" fill="#F05A22" points="4.164,58.603 99.319,58.603 91.488,73.823 4.164,73.823 
	"/>
<path fill="#FFFFFF" d="M147.405,54.663h-13.043v-2.821c0.177,0,0.354,0,0.531,0c0.177,0,0.353,0,0.53,0
	c0.575,0,0.863-0.144,0.863-0.432c0-0.266-0.22-0.73-0.663-1.393l-2.823-4.149l-3.157,4.673c-0.061,0.183-0.093,0.332-0.093,0.448
	c0,0.366,0.21,0.598,0.629,0.697c0.421,0.105,1.03,0.155,1.826,0.155v2.821h-10.189v-2.821c0.73,0,1.495-0.271,2.293-0.808
	c0.662-0.448,1.292-1.04,1.891-1.781l4.944-5.94l-4.679-5.94c-0.599-0.729-1.186-1.283-1.76-1.659
	c-0.687-0.442-1.404-0.663-2.158-0.663v-2.855h12.546v2.855c-1.307,0-1.958,0.265-1.958,0.796c0,0.199,0.082,0.431,0.249,0.697
	c0.166,0.26,0.294,0.459,0.382,0.592l2.046,2.82l2.101-2.815c0.423-0.486,0.632-0.896,0.632-1.228c0-0.575-0.73-0.863-2.19-0.863
	v-2.855h10.188v2.855c-0.819,0-1.693,0.276-2.622,0.829c-0.774,0.464-1.383,0.962-1.825,1.493l-4.447,5.409l5.511,6.998
	c0.572,0.687,1.337,1.217,2.289,1.599c0.796,0.31,1.516,0.465,2.157,0.465V54.663z M116.942,54.663h-12.015v-2.854
	c1.062-0.134,1.627-0.21,1.693-0.232c0.774-0.221,1.161-0.829,1.161-1.825V37.372c0-0.93-0.287-1.548-0.862-1.859
	c-0.288-0.154-1.04-0.31-2.257-0.463v-2.855h12.279v2.855c-1.196,0.154-1.948,0.309-2.257,0.463
	c-0.597,0.311-0.896,0.929-0.896,1.859v12.379c0,1.372,1.052,2.058,3.153,2.058V54.663z M99.786,35.05
	c-1.172,0.221-1.813,0.353-1.925,0.397c-0.619,0.332-0.929,1.051-0.929,2.157v17.059h-4.182L82.597,37.372v12.379
	c0,0.753,0.216,1.283,0.646,1.592c0.432,0.311,1.167,0.466,2.206,0.466v2.854h-8.894v-2.854c0.974,0,1.604-0.078,1.893-0.232
	c0.486-0.266,0.73-0.873,0.73-1.825V37.372c0-0.907-0.311-1.526-0.93-1.859c-0.22-0.11-0.862-0.265-1.925-0.463v-2.855h9.923
	l7.533,12.677v-7.5c0-0.841-0.271-1.438-0.812-1.792c-0.542-0.353-1.311-0.53-2.307-0.53v-2.855h9.125V35.05z M60.762,43.545
	l-2.356-5.94L56.06,43.55L60.762,43.545z M72.742,54.663H60.497v-2.854c1.172-0.155,1.781-0.244,1.825-0.266
	c0.486-0.154,0.73-0.497,0.73-1.029c0-0.354-0.078-0.774-0.232-1.261l-0.797-2.588h-7.302l-0.763,2.854
	c-0.066,0.309-0.099,0.565-0.099,0.764c0,0.687,0.386,1.117,1.162,1.294c0.243,0.045,0.763,0.122,1.56,0.232v2.854H46.126v-2.854
	c1.305-0.31,2.113-0.554,2.423-0.729c0.642-0.355,1.14-1.052,1.493-2.091l7.036-16.793h5.21l6.538,15.996
	c0.575,1.505,1.195,2.5,1.859,2.988c0.375,0.265,1.062,0.475,2.057,0.63V54.663z M42.81,54.663H30.531v-2.854
	c0.974,0,1.659-0.088,2.057-0.266c0.73-0.332,1.095-1.009,1.095-2.024V38.401l-5.508,16.262h-3.883l-5.476-16.528v11.118
	c0,1.15,0.288,1.892,0.863,2.224c0.376,0.222,1.129,0.332,2.257,0.332v2.854h-9.392v-2.854c0.664-0.066,1.338-0.134,2.025-0.199
	c0.553-0.244,0.83-1.029,0.83-2.356V37.87c0-1.128-0.199-1.881-0.598-2.257c-0.398-0.375-1.15-0.563-2.257-0.563v-2.855h10.46
	l4.414,13.95l4.408-13.95H42.81v2.855c-0.642,0.065-1.272,0.133-1.891,0.199c-0.819,0.199-1.229,1.161-1.229,2.887v11.383
	c0,0.73,0.189,1.272,0.565,1.626c0.464,0.442,1.315,0.664,2.555,0.664V54.663z"/>
<path fill="#FFFFFF" d="M147.687,68.339h-2.239v-4.315h2.239v0.573h-1.616v1.289h1.616v0.563h-1.616v1.293h1.616V68.339z
	 M135.415,68.339h-0.626v-4.315h1.246c0.516,0,0.914,0.119,1.185,0.356c0.273,0.241,0.409,0.588,0.409,1.039
	c0,0.353-0.114,0.646-0.342,0.882c-0.229,0.235-0.521,0.36-0.882,0.38l1.224,1.658h-0.783l-1.431-2.005V68.339z M135.415,66.263
	h0.321c0.431,0,0.754-0.069,0.965-0.212c0.212-0.139,0.317-0.353,0.317-0.638c0-0.279-0.091-0.485-0.271-0.615
	c-0.183-0.13-0.471-0.194-0.864-0.194h-0.468V66.263z M122.588,66.154c0-0.304,0.06-0.59,0.174-0.861
	c0.115-0.271,0.281-0.515,0.504-0.731c0.21-0.206,0.441-0.361,0.698-0.467c0.257-0.106,0.532-0.158,0.825-0.158
	c0.303,0,0.582,0.052,0.84,0.158c0.258,0.105,0.495,0.265,0.707,0.472c0.221,0.217,0.384,0.458,0.494,0.725
	c0.111,0.265,0.167,0.555,0.167,0.863c0,0.307-0.048,0.588-0.143,0.846s-0.237,0.489-0.426,0.696
	c-0.225,0.238-0.475,0.421-0.749,0.543c-0.275,0.122-0.575,0.186-0.896,0.186c-0.325,0-0.623-0.063-0.896-0.188
	c-0.274-0.125-0.521-0.31-0.737-0.555c-0.185-0.203-0.323-0.436-0.419-0.692C122.637,66.729,122.588,66.45,122.588,66.154z
	 M123.242,66.159c0,0.226,0.037,0.439,0.112,0.639c0.075,0.201,0.182,0.374,0.324,0.521c0.147,0.156,0.318,0.274,0.512,0.36
	c0.193,0.084,0.392,0.125,0.593,0.125c0.446,0,0.819-0.158,1.12-0.476c0.3-0.315,0.45-0.711,0.45-1.18
	c0-0.199-0.037-0.391-0.107-0.572c-0.071-0.18-0.179-0.348-0.316-0.499c-0.165-0.177-0.338-0.308-0.525-0.391
	s-0.395-0.125-0.621-0.125c-0.203,0-0.398,0.038-0.58,0.116c-0.185,0.076-0.347,0.187-0.489,0.335
	c-0.148,0.151-0.264,0.33-0.347,0.531C123.285,65.744,123.242,65.95,123.242,66.159z M114.331,68.339h-0.626v-3.735h-0.806v-0.58
	h2.239v0.58h-0.808V68.339z M102.891,67.095h0.56c0.01,0.223,0.075,0.4,0.198,0.533c0.121,0.132,0.283,0.201,0.479,0.201
	c0.217,0,0.387-0.069,0.516-0.201c0.129-0.133,0.196-0.311,0.196-0.536c0-0.193-0.049-0.348-0.144-0.452
	c-0.095-0.106-0.294-0.208-0.597-0.3c-0.014-0.003-0.042-0.01-0.079-0.021c-0.361-0.095-0.623-0.254-0.786-0.476
	c-0.073-0.096-0.128-0.2-0.165-0.311c-0.035-0.108-0.055-0.227-0.055-0.35c0-0.371,0.11-0.671,0.33-0.897
	c0.219-0.229,0.505-0.343,0.862-0.343c0.33,0,0.598,0.103,0.799,0.307c0.202,0.205,0.315,0.483,0.336,0.841h-0.584
	c-0.01-0.172-0.066-0.312-0.172-0.416c-0.107-0.107-0.239-0.159-0.399-0.159c-0.172,0-0.312,0.057-0.421,0.174
	c-0.106,0.12-0.161,0.271-0.161,0.457c0,0.065,0.011,0.126,0.029,0.185c0.021,0.056,0.052,0.11,0.093,0.159
	c0.085,0.102,0.268,0.189,0.547,0.263c0.128,0.03,0.227,0.061,0.295,0.085c0.286,0.106,0.501,0.262,0.648,0.465
	c0.146,0.202,0.22,0.447,0.22,0.732c0,0.416-0.117,0.753-0.355,1.008c-0.235,0.255-0.552,0.383-0.941,0.383
	c-0.369,0-0.667-0.123-0.897-0.367C103.012,67.815,102.894,67.491,102.891,67.095z M87.432,66.159h2.67
	c-0.029,0.675-0.248,1.221-0.655,1.639c-0.406,0.418-0.924,0.627-1.547,0.627c-0.323,0-0.623-0.063-0.896-0.188
	c-0.274-0.125-0.52-0.31-0.736-0.555c-0.185-0.203-0.324-0.436-0.417-0.692c-0.096-0.262-0.143-0.54-0.143-0.836
	c0-0.304,0.057-0.59,0.172-0.861c0.113-0.271,0.281-0.515,0.503-0.731c0.209-0.21,0.443-0.366,0.703-0.47
	c0.258-0.106,0.546-0.155,0.862-0.155c0.438,0,0.821,0.103,1.148,0.307c0.329,0.204,0.577,0.495,0.747,0.872H89.07
	c-0.143-0.183-0.312-0.321-0.51-0.413c-0.196-0.093-0.418-0.141-0.661-0.141c-0.204,0-0.396,0.038-0.58,0.116
	c-0.186,0.076-0.347,0.187-0.488,0.335c-0.15,0.151-0.265,0.33-0.348,0.531c-0.083,0.2-0.124,0.406-0.124,0.615
	c0,0.226,0.037,0.439,0.111,0.639c0.076,0.201,0.185,0.374,0.324,0.521c0.146,0.156,0.317,0.274,0.512,0.36
	c0.193,0.084,0.391,0.125,0.593,0.125c0.33,0,0.618-0.088,0.87-0.261c0.25-0.176,0.457-0.433,0.619-0.774h-1.957V66.159z
	 M75.198,68.339h-0.625v-4.315h0.643l2.12,3.265l-0.03-3.265h0.616v4.315h-0.599l-2.167-3.365L75.198,68.339z M66.593,68.339h-0.625
	v-4.315h0.625V68.339z M55.603,68.339h-0.626v-4.315h0.626v1.832h1.761v-1.832h0.625v4.315h-0.625v-1.87h-1.761V68.339z
	 M46.524,68.339h-0.626v-3.735h-0.806v-0.58h2.238v0.58h-0.806V68.339z M33.221,66.154c0-0.304,0.058-0.59,0.172-0.861
	c0.115-0.271,0.282-0.515,0.504-0.731c0.21-0.206,0.442-0.361,0.698-0.467c0.256-0.106,0.531-0.158,0.826-0.158
	c0.302,0,0.582,0.052,0.84,0.158c0.258,0.105,0.494,0.265,0.707,0.472c0.22,0.217,0.384,0.458,0.494,0.725
	c0.111,0.265,0.167,0.555,0.167,0.863c0,0.307-0.048,0.588-0.144,0.846c-0.093,0.258-0.236,0.489-0.426,0.696
	c-0.223,0.238-0.472,0.421-0.748,0.543c-0.276,0.122-0.574,0.186-0.897,0.186c-0.324,0-0.623-0.063-0.896-0.188
	c-0.274-0.125-0.521-0.31-0.736-0.555c-0.184-0.203-0.324-0.436-0.417-0.692C33.268,66.729,33.221,66.45,33.221,66.154z
	 M33.873,66.159c0,0.226,0.038,0.439,0.112,0.639c0.076,0.201,0.184,0.374,0.324,0.521c0.148,0.156,0.319,0.274,0.513,0.36
	c0.193,0.084,0.391,0.125,0.592,0.125c0.447,0,0.82-0.158,1.121-0.476c0.3-0.315,0.45-0.711,0.45-1.18
	c0-0.199-0.036-0.391-0.108-0.572c-0.072-0.18-0.177-0.348-0.315-0.499c-0.165-0.177-0.339-0.308-0.527-0.391
	c-0.186-0.083-0.393-0.125-0.621-0.125c-0.204,0-0.397,0.038-0.58,0.116c-0.184,0.076-0.347,0.187-0.49,0.335
	c-0.148,0.151-0.263,0.33-0.347,0.531C33.914,65.744,33.873,65.95,33.873,66.159z M25.902,68.339h-2.04v-4.315h0.625v3.719h1.415
	V68.339z M16,67.258c-0.188,0.377-0.448,0.665-0.778,0.866c-0.332,0.2-0.716,0.301-1.151,0.301c-0.324,0-0.624-0.063-0.896-0.188
	c-0.274-0.125-0.52-0.31-0.737-0.555c-0.185-0.203-0.323-0.436-0.418-0.692c-0.095-0.262-0.142-0.54-0.142-0.836
	c0-0.302,0.058-0.586,0.172-0.857c0.114-0.268,0.281-0.514,0.503-0.735c0.209-0.206,0.442-0.361,0.698-0.467
	c0.256-0.106,0.532-0.158,0.826-0.158c0.442,0,0.831,0.104,1.167,0.314c0.335,0.207,0.586,0.505,0.757,0.887h-0.736
	c-0.139-0.19-0.309-0.335-0.51-0.431c-0.201-0.096-0.429-0.146-0.683-0.146c-0.204,0-0.398,0.038-0.581,0.116
	c-0.184,0.076-0.347,0.187-0.488,0.335c-0.15,0.151-0.265,0.33-0.348,0.531c-0.083,0.2-0.125,0.406-0.125,0.615
	c0,0.226,0.037,0.439,0.113,0.639c0.074,0.201,0.182,0.374,0.323,0.521c0.148,0.156,0.319,0.274,0.512,0.36
	c0.194,0.084,0.392,0.125,0.593,0.125c0.247,0,0.469-0.045,0.668-0.14c0.199-0.094,0.361-0.229,0.49-0.406H16z"/>
<path fill="#FFFFFF" d="M147.687,68.339h-2.239v-4.315h2.239v0.573h-1.616v1.289h1.616v0.563h-1.616v1.293h1.616V68.339z
	 M135.415,68.339h-0.626v-4.315h1.246c0.516,0,0.914,0.119,1.185,0.356c0.273,0.241,0.409,0.588,0.409,1.039
	c0,0.353-0.114,0.646-0.342,0.882c-0.229,0.235-0.521,0.36-0.882,0.38l1.224,1.658h-0.783l-1.431-2.005V68.339z M135.415,66.263
	h0.321c0.431,0,0.754-0.069,0.965-0.212c0.212-0.139,0.317-0.353,0.317-0.638c0-0.279-0.091-0.485-0.271-0.615
	c-0.183-0.13-0.471-0.194-0.864-0.194h-0.468V66.263z M122.59,66.154c0-0.304,0.058-0.59,0.172-0.861
	c0.115-0.271,0.281-0.515,0.504-0.731c0.21-0.206,0.441-0.361,0.698-0.467c0.257-0.106,0.532-0.158,0.825-0.158
	c0.303,0,0.582,0.052,0.84,0.158c0.258,0.105,0.495,0.265,0.707,0.472c0.221,0.217,0.384,0.458,0.496,0.725
	c0.109,0.265,0.165,0.555,0.165,0.863c0,0.307-0.048,0.588-0.143,0.846c-0.094,0.258-0.237,0.489-0.426,0.696
	c-0.225,0.238-0.475,0.421-0.749,0.543c-0.275,0.122-0.575,0.186-0.896,0.186c-0.325,0-0.623-0.063-0.896-0.188
	c-0.274-0.125-0.521-0.31-0.737-0.555c-0.185-0.203-0.323-0.436-0.419-0.692C122.637,66.729,122.59,66.45,122.59,66.154z
	 M123.242,66.159c0,0.226,0.037,0.439,0.112,0.639c0.075,0.201,0.184,0.374,0.324,0.521c0.147,0.156,0.318,0.274,0.512,0.36
	c0.193,0.084,0.392,0.125,0.593,0.125c0.446,0,0.819-0.158,1.12-0.476c0.3-0.315,0.45-0.711,0.45-1.18
	c0-0.199-0.037-0.391-0.107-0.572c-0.071-0.18-0.179-0.348-0.316-0.499c-0.165-0.177-0.338-0.308-0.525-0.391
	s-0.395-0.125-0.621-0.125c-0.203,0-0.398,0.038-0.58,0.116c-0.185,0.076-0.347,0.187-0.489,0.335
	c-0.148,0.151-0.264,0.33-0.347,0.531C123.285,65.744,123.242,65.95,123.242,66.159z M114.331,68.339h-0.626v-3.735h-0.806v-0.58
	h2.239v0.58h-0.808V68.339z M102.891,67.095h0.56c0.01,0.223,0.075,0.4,0.198,0.533c0.121,0.132,0.283,0.201,0.479,0.201
	c0.217,0,0.387-0.069,0.516-0.201c0.129-0.133,0.196-0.311,0.196-0.536c0-0.193-0.049-0.348-0.144-0.452
	c-0.095-0.106-0.294-0.208-0.597-0.3c-0.014-0.003-0.042-0.01-0.079-0.021c-0.361-0.095-0.623-0.254-0.786-0.476
	c-0.073-0.096-0.128-0.2-0.165-0.311c-0.035-0.108-0.055-0.227-0.055-0.35c0-0.371,0.11-0.671,0.33-0.897
	c0.219-0.229,0.505-0.343,0.862-0.343c0.33,0,0.598,0.103,0.799,0.307c0.202,0.205,0.315,0.483,0.336,0.841h-0.584
	c-0.01-0.172-0.066-0.312-0.171-0.416c-0.108-0.107-0.24-0.159-0.4-0.159c-0.172,0-0.312,0.057-0.42,0.174
	c-0.107,0.12-0.162,0.271-0.162,0.457c0,0.065,0.011,0.126,0.029,0.185c0.021,0.056,0.052,0.11,0.093,0.159
	c0.085,0.102,0.268,0.189,0.547,0.263c0.128,0.03,0.227,0.061,0.295,0.085c0.286,0.106,0.501,0.262,0.648,0.465
	c0.146,0.202,0.22,0.447,0.22,0.732c0,0.416-0.117,0.753-0.355,1.008c-0.235,0.255-0.552,0.383-0.941,0.383
	c-0.369,0-0.667-0.123-0.897-0.367C103.012,67.815,102.894,67.491,102.891,67.095z M87.432,66.159h2.67
	c-0.029,0.675-0.248,1.221-0.655,1.639c-0.406,0.418-0.924,0.627-1.547,0.627c-0.323,0-0.623-0.063-0.896-0.188
	c-0.274-0.125-0.52-0.31-0.735-0.555c-0.186-0.203-0.325-0.436-0.418-0.692c-0.096-0.262-0.143-0.54-0.143-0.836
	c0-0.304,0.057-0.59,0.172-0.861c0.113-0.271,0.281-0.515,0.503-0.731c0.209-0.21,0.443-0.366,0.703-0.47
	c0.258-0.106,0.546-0.155,0.862-0.155c0.438,0,0.821,0.103,1.148,0.307c0.329,0.204,0.577,0.495,0.747,0.872H89.07
	c-0.143-0.183-0.312-0.321-0.51-0.413c-0.196-0.093-0.418-0.141-0.661-0.141c-0.204,0-0.396,0.038-0.58,0.116
	c-0.186,0.076-0.347,0.187-0.488,0.335c-0.15,0.151-0.265,0.33-0.348,0.531c-0.083,0.2-0.124,0.406-0.124,0.615
	c0,0.226,0.037,0.439,0.111,0.639c0.076,0.201,0.185,0.374,0.324,0.521c0.146,0.156,0.317,0.274,0.512,0.36
	c0.193,0.084,0.391,0.125,0.593,0.125c0.33,0,0.618-0.088,0.87-0.261c0.25-0.176,0.457-0.433,0.619-0.774h-1.957V66.159z
	 M75.198,68.339h-0.625v-4.315h0.643l2.12,3.265l-0.03-3.265h0.616v4.315h-0.599l-2.167-3.365L75.198,68.339z M66.593,68.339h-0.625
	v-4.315h0.625V68.339z M55.603,68.339h-0.626v-4.315h0.626v1.832h1.761v-1.832h0.625v4.315h-0.625v-1.87h-1.761V68.339z
	 M46.524,68.339h-0.626v-3.735h-0.806v-0.58h2.238v0.58h-0.806V68.339z M33.221,66.154c0-0.304,0.058-0.59,0.172-0.861
	c0.115-0.271,0.282-0.515,0.504-0.731c0.21-0.206,0.442-0.361,0.698-0.467c0.256-0.106,0.531-0.158,0.826-0.158
	c0.302,0,0.582,0.052,0.84,0.158c0.258,0.105,0.494,0.265,0.707,0.472c0.22,0.217,0.384,0.458,0.494,0.725
	c0.111,0.265,0.167,0.555,0.167,0.863c0,0.307-0.048,0.588-0.144,0.846c-0.093,0.258-0.236,0.489-0.426,0.696
	c-0.223,0.238-0.472,0.421-0.748,0.543c-0.276,0.122-0.574,0.186-0.897,0.186c-0.324,0-0.623-0.063-0.896-0.188
	c-0.274-0.125-0.521-0.31-0.736-0.555c-0.184-0.203-0.324-0.436-0.417-0.692C33.268,66.729,33.221,66.45,33.221,66.154z
	 M33.873,66.159c0,0.226,0.038,0.439,0.112,0.639c0.076,0.201,0.184,0.374,0.324,0.521c0.148,0.156,0.319,0.274,0.513,0.36
	c0.193,0.084,0.391,0.125,0.592,0.125c0.447,0,0.82-0.158,1.121-0.476c0.3-0.315,0.45-0.711,0.45-1.18
	c0-0.199-0.036-0.391-0.108-0.572c-0.072-0.18-0.177-0.348-0.315-0.499c-0.165-0.177-0.339-0.308-0.527-0.391
	c-0.186-0.083-0.393-0.125-0.621-0.125c-0.204,0-0.397,0.038-0.58,0.116c-0.184,0.076-0.347,0.187-0.49,0.335
	c-0.148,0.151-0.263,0.33-0.347,0.531C33.914,65.744,33.873,65.95,33.873,66.159z M25.902,68.339h-2.04v-4.315h0.625v3.719h1.415
	V68.339z M16,67.258c-0.188,0.377-0.448,0.665-0.778,0.866c-0.332,0.2-0.716,0.301-1.151,0.301c-0.324,0-0.624-0.063-0.896-0.188
	c-0.274-0.125-0.52-0.31-0.737-0.555c-0.185-0.203-0.323-0.436-0.418-0.692c-0.095-0.262-0.142-0.54-0.142-0.836
	c0-0.302,0.058-0.586,0.172-0.857c0.114-0.268,0.281-0.514,0.503-0.735c0.209-0.206,0.442-0.361,0.698-0.467
	c0.256-0.106,0.532-0.158,0.826-0.158c0.442,0,0.831,0.104,1.167,0.314c0.335,0.207,0.586,0.505,0.757,0.887h-0.736
	c-0.139-0.19-0.309-0.335-0.51-0.431c-0.201-0.096-0.429-0.146-0.683-0.146c-0.204,0-0.398,0.038-0.581,0.116
	c-0.184,0.076-0.347,0.187-0.488,0.335c-0.15,0.151-0.265,0.33-0.348,0.531c-0.083,0.2-0.125,0.406-0.125,0.615
	c0,0.226,0.037,0.439,0.113,0.639c0.074,0.201,0.182,0.374,0.323,0.521c0.148,0.156,0.319,0.274,0.512,0.36
	c0.194,0.084,0.392,0.125,0.593,0.125c0.247,0,0.469-0.045,0.668-0.14c0.199-0.094,0.361-0.229,0.49-0.406H16z"/>
</svg>
